<svg width="243" height="32" viewBox="0 0 243 32" xmlns="http://www.w3.org/2000/svg" xmlns:xlink="http://www.w3.org/1999/xlink"><defs><path d="M13.27145 0l12.7501229 31.3333333h-1.9401972l-3.3626501-8.2949483H5.2132721l-3.316071 8.2949483H0L12.7071268 0h.5643232zm20.2744331.3548169v30.9785164h-1.8954096V.3548169h1.8954096zm17.2002148 0c3.3698161 0 6.0104907.7714178 7.9220238 2.3142535 1.9849847 1.5852019 2.977477 3.8535587 2.977477 6.8050704 0 4.5208263-2.264459 7.3893709-6.7915857 8.6056338l7.8987343 13.2535587h-2.2572931l-7.6282174-12.8987418-1.0390714.0900282-7.6049278.0211831v12.7875305H42.327828V.3548169zM12.9776436 3.3804695l-.3153044 1.0450329c-.2257293.711399-.4227946 1.2815774-.5876128 1.7123004L5.9137495 21.4143474h14.1510778L13.9038504 6.2048826c-.1809418-.4607324-.385173-1.0538591-.6109023-1.7793802-.0304556-.1341597-.0662856-.266554-.1128647-.4007137l-.2024398-.6443192zm37.5875126-1.3786667h-6.3419186v14.8987794h6.3419186c6.0928998 0 9.1402454-2.4748921 9.1402454-7.4264413 0-4.9815587-3.0473456-7.472338-9.1402454-7.472338z" id="a"/><path d="M0 32h21.3198573v-4.3159437h-9.7880716c-.4876923 0-1.0695008.0306479-1.7454253.0919437l-.8624455.0901408c0 .0162254.2583914-.1892957.7768854-.6129577.5732525-.4849577 1.0489664-.9302535 1.4220083-1.339493l5.0446215-5.5869295c3.4634715-3.8616338 5.1952073-7.4726761 5.1952073-10.8331268 0-2.8015775-.8624455-5.080338-2.5873364-6.8362817C17.00763.8851831 14.6649954 0 11.7473971 0c-2.8440166 0-5.2311425.8707606-7.156244 2.6122817-1.810451 1.6495775-2.9894687 3.868845-3.5353419 6.6541972l4.6339332 1.112338c.934316-3.9067042 2.9535335-5.859155 6.0576527-5.859155 3.2341705 0 4.8512558 1.6730142 4.8512558 5.0190423 0 2.4680564-1.4151635 5.2534085-4.2472017 8.3578592L0 31.5907606V32z" id="b"/><path d="M120.378648 0c5.646251 0 9.87371 2.0630806 12.682376 6.1892418l-3.781036 2.6682984c-1.957391-2.9904879-4.925107-4.4857318-8.90134-4.4857318-3.264126 0-5.958927 1.1000723-8.082597 3.2966569-2.111019 2.1983645-3.166528 4.971686-3.166528 8.3181843 0 3.3340379 1.055509 6.1020193 3.166528 8.2986038 2.12367 2.2410858 4.818471 3.3642988 8.082597 3.3642988 2.109211 0 3.952737-.4503532 5.532386-1.3474996 1.471206-.8223841 2.747216-2.0114591 3.824413-3.5654447l3.781037 2.6006564C130.570456 29.7784947 126.191178 32 120.378648 32c-4.569053 0-8.409733-1.4952439-11.522039-4.4857318-3.171949-3.06525-4.758828-6.9066028-4.758828-11.5276186 0-4.6032152 1.586879-8.4303276 4.758828-11.4795572C111.968915 1.5023641 115.809595 0 120.378648 0zM65.8030421.3577905l7.14999 16.7752128c.3940086.850865.8259721 2.0328197 1.2976979 3.542304.4102749 1.2851978.6145087 1.9580576.6145087 2.0185793 0-.0907826.1825453-.7476219.5458284-1.974078.4717258-1.5094843.9109188-2.7056794 1.3211938-3.5868053L83.768386.3577905h4.8040125L75.047784 31.9092173h-.6145088L60.5435702.3577905h5.2594719zM.5241398.0427213l15.140411 17.4480725L30.6929044.0427213h.5006438V31.595928h-4.7136435V15.3832119c0-.7031207.0307254-1.6518885.0903689-2.8480837l.0921763-1.6145074-.9795992 1.3902208c-.7139146 1.0021695-1.3284233 1.7800523-1.8435262 2.3318685l-7.9922284 9.462758h-.5458284l-7.9705399-9.462758c-.5006439-.5518162-1.0916567-1.3172387-1.7748458-2.2891472l-1.0247837-1.4329421.090369 1.6145074c.0614508 1.1961952.0921762 2.144963.0921762 2.8480837v16.2127162H0V.0427213h.5241398zm49.3107119 0L63.7227493 31.595928h-5.1221111l-2.3459775-5.6961673h-13.47943l-2.3224816 5.6961673h-4.7570206L49.2655274.0427213h.5693243zm48.2172478.3150692v31.2381376h-4.8943814V.3577905h4.8943814zm-48.6040268 8.410747l-.5024513 1.6572288c-.3795495 1.228236-.7211441 2.2072648-1.0247837 2.9388663l-3.4593227 8.4997497h10.0182999l-3.4394416-8.4997497c-.3180987-.7316015-.6596932-1.6839295-1.0247837-2.8480837-.3488241-.986149-.5385989-1.5717861-.5675169-1.7480113z" id="c"/></defs><g fill="#141414" fill-rule="evenodd"><use xlink:href="#a" transform="translate(145.532967 .333333)"/><use xlink:href="#b" transform="translate(221.637363)"/><use xlink:href="#c"/></g></svg>