<?xml version="1.0" encoding="UTF-8" standalone="no"?>
<svg width="48px" height="48px" viewBox="0 0 48 48" version="1.1" xmlns="http://www.w3.org/2000/svg" xmlns:xlink="http://www.w3.org/1999/xlink">
    <!-- Generator: Sketch 46.2 (44496) - http://www.bohemiancoding.com/sketch -->
    <title>systemicon/black/search</title>
    <desc>Created with Sketch.</desc>
    <defs></defs>
    <g id="Symbols" stroke="none" stroke-width="1" fill="none" fill-rule="evenodd">
        <g id="systemicon/black/search">
            <g id="Search-Copy">
                <rect id="Rectangle-9" x="0" y="0" width="48" height="48"></rect>
                <path d="M33.9794035,31.9794035 L44,42 C42.6666667,43.3333333 41.3333333,43.3333333 40,42 L31.9794035,33.9794035 C29.017345,36.487555 25.1852977,38 21,38 C11.6111593,38 4,30.3888407 4,21 C4,11.6111593 11.6111593,4 21,4 C30.3888407,4 38,11.6111593 38,21 C38,25.1852977 36.487555,29.017345 33.9794035,31.9794035 Z M21,35 C28.7319865,35 35,28.7319865 35,21 C35,13.2680135 28.7319865,7 21,7 C13.2680135,7 7,13.2680135 7,21 C7,28.7319865 13.2680135,35 21,35 Z" id="Combined-Shape" fill="#FFFFFF"></path>
            </g>
        </g>
    </g>
</svg>